<?xml version="1.0" encoding="UTF-8"?><svg id="Capa_2" xmlns="http://www.w3.org/2000/svg" viewBox="0 0 412.59 412.59"><defs><style>.cls-1{fill:#ceb675;}</style></defs><g id="Capa_1-2"><path class="cls-1" d="M206.29,6.33C95.86,6.33,6.33,95.86,6.33,206.29s89.53,199.96,199.96,199.96,199.96-89.53,199.96-199.96S316.73,6.33,206.29,6.33M206.29,401.31c-107.7,0-195.02-87.31-195.02-195.02S98.59,11.28,206.29,11.28s195.02,87.31,195.02,195.02-87.31,195.02-195.02,195.02"/><path class="cls-1" d="M206.29,0C92.36,0,0,92.36,0,206.29s92.36,206.29,206.29,206.29,206.29-92.36,206.29-206.29S320.22,0,206.29,0M206.29,409.96C93.81,409.96,2.63,318.78,2.63,206.29S93.81,2.63,206.29,2.63s203.67,91.18,203.67,203.67-91.19,203.67-203.67,203.67"/><path class="cls-1" d="M112.36,182.81c-2.56,0-3.99,1.21-4.02,4.13l1.92,38.45h.01c.18,3.23,1.76,4.67,4.49,4.67v.44h-18.77v-.44h.64c2.17,0,3.53-1.82,3.45-4.67-.3-11.85-.67-23.75-.99-35.63l-18.9,41.1h-2.57l4.82-11h0s-4.81,11-4.81,11c-6.32-12.34-12.68-24.64-19.01-36.96l-1.29,30.97c.08,3.17,2.11,5.19,5.14,5.19h.88v.44h-13.64v-.44c2.52,0,4.07-1.14,4.43-3.91l1.61-38.67h-.02c.08-2.84-1.2-4.67-3.37-4.67h-.64v-.44h12.19l18.54,37.48,16.44-37.48h13.48v.44Z"/><path class="cls-1" d="M164.58,230.06h.89c2.97,0,4.09-1.82,2.81-4.67-1.75-3.9-3.66-7.88-5.47-11.81h-17.25l-4.16,10.72c-1.36,3.5-.16,5.76,2.97,5.76h.88v.44h-13.72v-.44c2.62,0,4.54-1.22,5.89-4l18.1-44.77h2.57l21.62,44.8c1.53,2.74,3.29,3.98,5.58,3.98v.44h-20.7v-.44ZM153.39,193.37l-6.93,17.87h15.26l-8.32-17.87Z"/><path class="cls-1" d="M222.41,182.81h-.72c-2.35,0-2.91,1.63-1.41,4.21l11.35,17.54,11.24-15.62s4.39-6.13-.65-6.13h-.88v-.44h12.75v.44c-2.41,0-4.63,1.4-6.89,4.33l-14.23,19.29h.02v18.96c0,2.85,1.44,4.67,3.61,4.67h.64v.44h-18.77v-.44h.64c2.17,0,3.61-1.82,3.61-4.67v-15.95l-14.9-22.76c-1.89-2.6-3.71-3.87-5.63-3.87v-.44h20.22v.44Z"/><path class="cls-1" d="M292.36,230.49h-18.77v-.44h.64c2.16,0,3.61-1.82,3.61-4.67v-37.91c0-2.84-1.44-4.67-3.61-4.67h-.64v-.44h18.77v.44h-.64c-2.17,0-3.61,1.82-3.61,4.67v37.91c0,2.85,1.44,4.67,3.61,4.67h.64v.44Z"/><path class="cls-1" d="M358.45,182.81c-2.76,0-5.42,1.33-8.41,4.17l-12.56,12.73c2.06,2.81,6.12,8.36,11.26,15.47,7.39,10.22,11.4,13.85,15.8,13.85v1.82h-3.53c-9.22,0-14.6-2.48-19.17-8.75-7.62-10.5-12.68-17.5-12.68-17.5v20.78c0,2.85,1.44,4.67,3.61,4.67h.64v.44h-18.77v-.44h.64c2.17,0,3.61-1.82,3.61-4.67v-37.91c0-2.84-1.44-4.67-3.61-4.67h-.64v-.44h18.77v.44h-.64c-2.17,0-3.61,1.82-3.61,4.67v17.13l17.36-17.76c2.28-2.49,2.55-4.04.69-4.04h-.56v-.44h11.79v.44Z"/></g></svg>