<?xml version="1.0" encoding="UTF-8"?>
<svg version="1.1" viewBox="0 0 2048 2048" width="700" height="700" xmlns="http://www.w3.org/2000/svg">
<path transform="translate(0)" d="m0 0h2048v2048h-2048z" fill="#FEFEFE"/>
<path transform="translate(1e3 513)" d="m0 0h43l29 2 30 4 26 5 31 8 30 10 29 12 29 14 23 13 30 20 21 16 11 9 12 11 8 7 23 23 9 11 9 10 10 13 13 18 14 22 13 23 11 21 13 30 12 35 8 30 6 32 3 22 2 22 1 24v21l-2 32-5 37-6 29-6 23-12 36-10 24-12 25-13 24-14 22-13 18-10 13-9 11-11 12-7 8-24 24-8 7-13 11-17 13-18 13-21 13-25 14-29 14-30 12-28 9-36 9-36 6-33 3h-54l-39-4-29-5-34-8-29-9-28-11-26-12-28-15-21-13-20-14-17-13-13-11-14-12-27-27-9-11-8-9-13-17-13-18-12-19-12-21-8-16-11-23-11-29-9-28-7-28-5-27-4-33-1-13v-60l4-37 5-29 8-33 12-36 11-27 14-29 13-23 14-22 11-15 9-12 9-11 9-10 7-8 9-10 13-13 8-7 10-9 11-9 13-10 18-13 19-12 22-13 16-8 24-11 26-10 31-10 29-7 27-5 23-3z" fill="#443F3A"/>
<path transform="translate(1e3 513)" d="m0 0h43l29 2 30 4 26 5 31 8 30 10 29 12 29 14 23 13 30 20 21 16 11 9 12 11 8 7 23 23 9 11 9 10 10 13 13 18 14 22 13 23 11 21 13 30 12 35 8 30 6 32 3 22 2 22 1 24v21l-2 32-5 37-6 29-6 23-12 36-10 24-12 25-13 24-14 22-13 18-10 13-9 11-11 12-7 8-24 24-8 7-13 11-17 13-18 13-21 13-25 14-29 14-30 12-28 9-36 9-36 6-33 3h-54l-39-4-29-5-34-8-29-9-28-11-26-12-28-15-21-13-20-14-17-13-13-11-14-12-27-27-9-11-8-9-13-17-13-18-12-19-12-21-8-16-11-23-11-29-9-28-7-28-5-27-4-33-1-13v-60l4-37 5-29 8-33 12-36 11-27 14-29 13-23 14-22 11-15 9-12 9-11 9-10 7-8 9-10 13-13 8-7 10-9 11-9 13-10 18-13 19-12 22-13 16-8 24-11 26-10 31-10 29-7 27-5 23-3zm4 42-40 4-50 8-20 6-24 9-16 8-38 18-17 10-24 16-19 14-11 9-10 9-12 11-8 7-9 9-7 8-9 10-15 20-11 15-14 22-12 22-10 23-14 37-7 23-6 22-5 27-4 36v65l3 28 5 29 6 24 12 37 12 30 7 16 10 17 14 24 10 13 13 17 12 14 13 15 15 15 8 7 15 13 11 9 14 11 17 11 25 15 27 14 24 10 36 12 27 7 27 5 28 4 17 2 31 1 24-1 28-4 31-6 33-7 29-9 23-10 35-17 11-7 14-7 18-13 11-10 10-8 13-11 10-9 29-29 9-11 11-13 12-17 15-24 13-23 10-21 11-29 9-27 7-29 5-30 3-31v-66l-3-27-5-29-1-14-8-30-7-20-10-24-16-31-10-17-19-28-14-20-11-13-9-11-10-10-10-8-7-7-8-7-12-10-13-10-13-9-14-8-15-9-18-10-23-11-18-8-10-3-9-4-21-7-27-6-32-4-30-3-14-1z" fill="#443F3A"/>
<path transform="translate(993,545)" d="m0 0h60l31 2 28 4 30 7 26 8 25 10 26 11 20 10 10 7 10 8 14 9 18 13 10 6 10 8 7 8 14 12 10 9 13 15 13 13 9 11 9 10 18 27 10 18 14 30 18 45 7 19 5 19 4 22 4 27 4 26v60l-3 29-7 36-5 18-3 14-10 30-12 27-18 36-13 22-12 16-8 11-6 8-9 10-29 29-7 8-14 14-17 13-14 11-21 14-14 9-16 9-33 15-27 10-27 8-26 6-29 6-20 3-15 1h-53l-31-3-37-6-27-6-27-9-23-10-35-17-16-9-17-9-6-4-11-6-14-11-10-8-17-16-36-36-9-11-12-13-13-18-10-15-12-21-11-21-13-29-10-28-7-23-3-12-6-30-2-13-4-36v-44l2-25 2-18 4-21 3-17 8-28 8-20 11-26 11-24 12-20 9-19 10-14 7-10 8-11 13-14 7-9 9-10 20-20 22-18 15-12 13-9 9-7 15-11 17-10 16-8 17-8 26-10 24-6 8-4 18-5 15-3 39-5zm14 10-40 4-50 8-20 6-24 9-16 8-38 18-17 10-24 16-19 14-11 9-10 9-12 11-8 7-9 9-7 8-9 10-15 20-11 15-14 22-12 22-10 23-14 37-7 23-6 22-5 27-4 36v65l3 28 5 29 6 24 12 37 12 30 7 16 10 17 14 24 10 13 13 17 12 14 13 15 15 15 8 7 15 13 11 9 14 11 17 11 25 15 27 14 24 10 36 12 27 7 27 5 28 4 17 2 31 1 24-1 28-4 31-6 33-7 29-9 23-10 35-17 11-7 14-7 18-13 11-10 10-8 13-11 10-9 29-29 9-11 11-13 12-17 15-24 13-23 10-21 11-29 9-27 7-29 5-30 3-31v-66l-3-27-5-29-1-14-8-30-7-20-10-24-16-31-10-17-19-28-14-20-11-13-9-11-10-10-10-8-7-7-8-7-12-10-13-10-13-9-14-8-15-9-18-10-23-11-18-8-10-3-9-4-21-7-27-6-32-4-30-3-14-1z" fill="#CEB675"/>
<path transform="translate(1010,536)" d="m0 0h28l35 3 36 6 32 8 37 11 27 10 25 12 16 8 17 10 23 15 11 7 12 11 8 7 11 10 10 8 27 27 6 7 3 5 11 12 10 15 7 10 6 9 14 26 10 18 9 19 9 23 11 33 6 26 4 24 2 13 3 29 1 16v47l-4 34-3 13-8 38-6 21-9 24-14 35-9 17-5 10-6 9-12 19-12 17-18 22-11 13-9 11-9 8-10 8-11 10-10 8-14 11-19 14-22 14-18 10-31 15-18 8-15 6-28 9-41 9-28 5-20 2h-61l-27-3-42-8-35-11-34-12-30-13-20-11-24-15-15-10-12-9-14-10-15-13-8-6-6-5-7-8-15-16-9-11-11-13-12-16-17-26-15-28-8-16-10-22-12-31-8-28-9-36-3-28-1-20v-59l2-27 6-34 7-30 5-19 8-21 15-35 12-25 13-21 13-19 12-15 11-14 18-20 10-10 8-7 15-15 22-18 39-26 21-12 19-10 26-11 25-9 29-9 25-6 21-3 35-4zm-17 9-28 3-23 3-27 6-11 4-6 3-21 5-21 8-20 9-16 8-16 9-11 8-15 11-28 21-9 8-11 9-10 9-20 20-11 14-12 13-7 10-8 11-7 10-8 16-8 15-8 13-12 26-13 32-6 16-8 31-4 25-2 11-2 19-1 17v44l4 36 2 13 4 20 3 13 6 23 11 32 9 21 12 25 11 20 12 19 12 17 8 10 11 12 9 11 43 43 8 7 12 10 17 12 11 6 16 9 17 9 42 21 28 11 24 7 36 7 28 4 23 2h53l23-2 22-4 38-8 31-9 25-9 25-11 16-8 15-8 30-20 12-9 14-11 11-9 17-17 7-8 30-30 16-22 10-13 12-20 14-27 14-29 10-26 7-23 3-14 4-16 6-31 3-29v-60l-6-39-6-36-5-19-8-22-18-44-17-36-11-18-11-16-9-11-10-11-7-8-11-11-9-11-7-7-11-9-12-11-5-5-9-7-14-9-18-13-11-7-11-9-27-14-41-17-27-9-32-8-24-4-20-2-20-1z" fill="#443F3A"/>
<path transform="translate(1e3 531)" d="m0 0h48l40 4 29 5 34 8 27 8 21 8 20 9 30 15 21 12 19 12 17 13 9 7 9 9 8 7 12 11 13 12 7 9 11 12 3 6 9 10 13 17 14 21 9 13 9 14 13 27 11 27 9 28 7 28 9 46 3 29 1 19v24l-1 19-4 34-6 32-6 25-7 23-13 33-13 29-12 23-13 21-13 18-14 18-12 14-10 11-7 8-12 12-8 7-14 12-16 13-18 13-22 14-22 13-27 13-20 8-28 10-19 6-28 7-27 5-23 3-14 1h-56l-24-2-29-4-24-5-34-9-32-11-23-10-30-15-21-13-24-16-13-10-10-9-14-14-8-7-15-15-7-8-14-15-8-7-7-10-4-6-7-8-4-9-9-13-15-27-9-17-5-8-11-27-11-33-5-17-6-28-5-31-3-26v-58l2-15 1-16 6-36 8-29 9-27 14-34 10-21 13-23 15-23 14-19 13-17 11-13 7-7 7-8 16-16 8-7 11-9 11-8 9-9 17-12 21-14 24-13 24-12 27-11 28-9 27-7 29-6 38-5zm10 5-36 3-32 4-25 6-20 6-33 11-24 10-17 8-23 13-15 9-28 19-13 10-10 9-8 7-15 15-8 7-11 11-7 8-14 17-10 13-10 14-11 17-11 19-14 30-15 36-6 19-9 39-6 34-2 27v59l1 20 3 28 13 51 7 21 12 30 11 24 12 22 10 18 10 15 10 14 9 11 13 16 12 13 7 8 10 11 13 10 14 12 28 20 20 13 25 15 15 8 29 12 37 13 29 9 42 8 27 3h61l27-3 45-9 24-6 29-10 33-15 31-15 23-14 20-14 18-14 11-9 13-11 9-8 8-6 11-12 7-9 12-14 11-14 12-17 12-19 10-16 8-16 7-16 8-21 9-23 6-20 6-27 5-26 2-9 3-27v-47l-3-36-2-19-4-21-6-28-7-23-9-25-11-25-12-23-13-23-7-12-7-9-9-14-12-14-3-3-2-5-35-35-10-8-10-9-14-13-13-9-16-10-19-12-16-9-23-11-19-8-33-11-40-11-29-6-29-4-26-2z" fill="#F3E09B"/>
<path transform="translate(993,545)" d="m0 0h60l31 2 28 4 30 7 26 8 25 10 26 11 20 10 10 7 10 8 14 9 18 13 10 6 10 8 7 8 14 12 10 9 13 15 13 13 9 11 9 10 18 27 10 18 14 30 18 45 7 19 5 19 4 22 4 27 4 26v60l-3 29-6 31h-1v-9-3l-3 1 1 3-1 4h-2l-2 4-1 7-2 1-3 11-1-4 5-25 3-18 3-31v-66l-3-27-5-29-1-14-8-30-7-20-10-24-16-31-10-17-19-28-14-20-11-13-9-11-9-9-10-8-7-7-8-7-12-10-13-10-13-9-14-8-15-9-18-10-23-11-18-8-10-3-9-4-21-7-27-6-32-4-30-3-14-1h-34l-23 2h-9v-1l17-3v-2l-5 1-12-1h-17l-12 2-5 2-9 2-27 7-29 10-22 9-5 3h-2v3l-8 1-8 4-6 4-19 9-11 5-5 3-2-1 10-8 13-8 14-8 26-12 26-10 24-6 8-4 18-5 15-3 39-5z" fill="#CEB675"/>
<path transform="translate(688,934)" d="m0 0h8l9 2 6 7 13 29 10 25 10 21 3-4 13-34 10-25 9-19 2-2h19v7l-1 2h-2l3 41 1 27 2 22 2 7 2 1v4h-31l1-4h2v-85h-2l-9 25-5 11-14 35-8 21h-3l-8-14-14-30-11-27-5-13-2-1 1 76 2 5-1 1h-15l2-27 1-18z" fill="#CEB675"/>
<path transform="translate(1e3 531)" d="m0 0h48l40 4 29 5 34 8 27 8 21 8 20 9 30 15 21 12 19 12 17 13 9 7 9 9 8 7 12 11 13 12 7 9 11 12 3 6 9 10 13 17 14 21 9 13 9 14 13 27 11 27 9 28 7 28 9 46 3 29 1 19v24l-1 19-3 27h-1v-12l2-28-2 7-4 34-10 49-6 22-6 17-1-3 6-19 6-26 6-31 2-9 3-27v-47l-3-36-2-19-4-21-6-28-7-23-9-25-11-25-12-23-13-23-7-12-7-9-9-14-12-14-3-3-1-5-4-2-9-10-22-22-10-8-10-9-14-13-13-9-16-10-19-12-16-9-23-11-19-8-33-11-40-11-29-6-29-4-26-2h-28l-16 1h-11v-1l20-2h57l-1-1-12-1-47-1z" fill="#CEB675"/>
<path transform="translate(1461,1061)" d="m0 0h1v7l-1 2-1 14-5 18-3 14-10 30-12 27-18 36-13 22-12 16-8 11-6 8-9 10-29 29-7 8-14 14-17 13-14 11-21 14-14 9-16 9-33 15-27 10-27 8-26 6-29 6h-13l2-2h6v-2l12-3 26-6 12-3 20-6 15-5h2v-2l19-6 26-11 17-9 8-4 2-4 4-4 14-7 18-13 11-10 10-8 13-11 10-9 28-28 9-11 11-13 12-17 15-24 13-23 10-21 11-29 9-27 3-12h2l2-11 3-1v-7l2-3 3-1v-7h2z" fill="#F7E59F"/>
<path transform="translate(993,545)" d="m0 0h60l31 2 28 4 30 7 26 8 25 10 26 11 20 10 10 7 10 8 14 9 9 7 6 8 5 4 5 3 6 6v2l5-1 11 12 13 13-1 2-5-2-9-9-8-7-12-10-13-10-13-9-14-8-15-9-18-10-23-11-18-8-10-3-9-4-21-7-27-6-32-4-30-3-14-1h-34l-23 2h-9v-1l17-3v-2l-5 1-12-1h-17l-12 2-5 2-9 2-27 7-29 10-22 9-5 3h-2v3l-8 1-8 4-6 4-19 9-11 5-5 3-2-1 10-8 13-8 14-8 26-12 26-10 24-6 8-4 18-5 15-3 39-5z" fill="#CEB675"/>
<path transform="translate(958,551)" d="m0 0h17l17 1v2h7v1l-18 2h-6v2l-47 7-19 4-21 7-19 8-16 8-34 16-17 10-24 16-19 14-11 9-10 9-12 11-8 7-8 8-7 8-9 10-15 20-11 15-14 22-12 22-10 23-2 5h-2l-3 9-4 9-8 21-2 1 1 2-1 3-3-1-2 3-1-5 3-6-1 1-1-3 2-2 2 1-1-6 2-8 10-24 11-24 12-20 9-19 10-14 7-10 8-11 13-14 7-9 9-10 20-20 22-18 15-12 13-9 9-7 7-3 10-5 12-5 15-8 5-3 4-2h8v-3l14-7 26-10 22-7 23-6 13-3 6-2z" fill="#F7E59F"/>
<path transform="translate(1274,934)" d="m0 0h29l1 3-2 5-1 1-1 38 6-3 9-11 19-19 7-9 6-5h7v4l-11 9-18 18-6 7-1 5 5 9 11 15 10 14 11 13 8 8 10 6v3h-16l-13-5-11-8-7-7-20-28-5-6v46l4 3-1 4-16 1h-13l-1-2 5-5v-96l-5-6z" fill="#CEB675"/>
<path transform="translate(907,931)" d="m0 0 4 1 6 9 24 58 9 20 8 16 5 8v2h-15l-15-1v-11l-10-23v-3l-36 1-7 21v11l5 3-1 2h-22l10-20 13-37 8-21 8-20 4-13z" fill="#CEB675"/>
<path transform="translate(989,532)" d="m0 0h58l19 2v1l-10 1h-53l-10 1h-10v2l-41 5-25 6-20 6-33 11-24 10-17 8-23 13-15 9-28 19-13 10-10 9-8 7-15 15-8 7-10 10-7 8-14 17-10 13-10 14-11 17-11 19-14 30-13 31-3 3-6 17-5 18-3 7h-1v-7l8-27 2-9 14-34 10-21 13-23 15-23 14-19 13-17 11-13 7-7 7-8 16-16 8-7 11-9 11-8 9-9 17-12 21-14 24-13 24-12 27-11 28-9 27-7 29-6z" fill="#F0DD98"/>
<path transform="translate(1022,934)" d="m0 0 29 2 3 11 12 23 8 13h2l14-22 9-17 4-9 1-1h10l2 1-1 4-10 10-13 21-9 15-4 8-1 14 1 21 2 10 3 4-1 3h-27l-1-3 2-4 2-39-8-15-15-23-12-20-2-3z" fill="#CEB675"/>
<path transform="translate(1e3 531)" d="m0 0h48l40 4 29 5 34 8 27 8 21 8 20 9 30 15 21 12 19 12 17 13 9 7 9 9 8 7 12 11 13 12 3 9 3 3v2l-4-1-24-24-10-8-10-9-14-13-13-9-16-10-19-12-16-9-23-11-19-8-33-11-40-11-29-6-29-4-26-2h-28l-16 1h-11v-1l20-2h57l-1-1-12-1-47-1z" fill="#F0DD98"/>
<path transform="translate(628,818)" d="m0 0 1 3-11 29-7 23-6 22-5 27-4 36v65l3 28 5 29 6 24 12 37 12 30-1 3-11-27-10-28-8-27-2-6-2-11-1-2-1-11h-2l-1-10-2-18-2-4-2-15-3-3v9l2 14 1 12 2 11 4 21 2 6v9l-2-3-6-30-2-13-4-36v-44l2-25 2-18 4-21 3-17 8-28 7-17 2 4-2 1 1 4-3 1 2 2-3 7h3v2h2l-1-5 4-6 6-16 4-9z" fill="#CEB675"/>
<path transform="translate(1179,935)" d="m0 0h30l-2 5-3 7v91l5 2 1 4-1 1h-31l3-6 1-21v-76l-3-3z" fill="#CEB675"/>
<path transform="translate(781,934)" d="m0 0h19v7l-1 2h-2l3 41 1 27 2 22 2 7 2 1v4h-31l1-4h2v-85h-3l3-13 6-7h10l3 2 1-3-17 1-3 2z" fill="#CEB675"/>
<path transform="translate(1441,836)" d="m0 0 2 2 6 15 7 22 6 31 4 27 4 26v60l-3 29-6 31h-1v-9-3l-3 1 1 3-1 4h-2l-2 4-1 7-2 1-3 11-1-4 5-25 3-18 3-31v-66l-3-27-5-29v-14l2 4-1 7 2 1 1 10 2 5 2 13 1 1 2 9 3 6 3 16 1 2v-5l-1-1-3-24-3-14-2-18-8-33-4-9-5-15z" fill="#CEB675"/>
<path transform="translate(601,833)" d="m0 0 1 3-7 21-9 39-6 34-2 27v59l1 20 3 28 13 51 7 21 12 30 11 24 1 4-3-3-4-9-11-24-11-29-7-24-11-44-3-23-2-11-1-22-1 9 1 13 2 16 2 17v6l-2-4-3-20-3-26v-58l2-15 1-16 6-36 8-29 7-21 1 3-8 27v5l3-7 2-9 8-24z" fill="#CEB675"/>
<path transform="translate(572 1e3)" d="m0 0 2 2 1 24 4 22 2 16 5 18 10 38 13 35 12 27 4 8 4 4 10 19 8 14 10 15 10 14 2 4h-3l-1 4h2l2 6-5-5-5-8-7-8-4-9-9-13-15-27-9-17-5-8-11-27-11-33-5-17-6-28-4-42-1-4-1-14z" fill="#F3E09B"/>
<path transform="translate(586,1011)" d="m0 0 4 4 2 15 2 4 1 12 1 7v9h2l1 2 1 9 2 5 1 8 3 9 9 30 10 27 9 22v3l-4-2-6-4-2-5-3-3-6-14-12-35-4-15-1-16-3-9-3-16-2-11-2-21-1-5v-9z" fill="#FBE9A2"/>
<path transform="translate(1465,859)" d="m0 0 2 3 6 26 8 41 3 29 1 19v24l-1 19-3 27h-1v-12l2-28-2 7-4 34-10 49-6 22-6 17-1-3 6-19 6-26 6-31 2-9 3-27v-47l-3-36-2-19-4-21-1-10h2l5 21 4 24 2 7-1-13-7-37-6-27z" fill="#CEB675"/>
<path transform="translate(1e3 531)" d="m0 0h48l40 4 29 5 34 8 27 8 8 3-1 3-2 1 4 4-9-2-30-9-34-9-27-5-23-3-26-2h-28l-16 1h-11v-1l20-2h57l-1-1-12-1-47-1z" fill="#CEB675"/>
<path transform="translate(1421,796)" d="m0 0 5 1 13 31 2 5 3 12 6 17 2 5 7 29 2 18 3 14 3 24 1 1v8l-2-3-3-13-3-10-2-3-1-7-2-6-2-11-2-7v-5l-1-5v-7h-2l-8-30-7-20-8-19v-6l-5-12z" fill="#F9E7A1"/>
<path transform="translate(1243,1364)" d="m0 0 2 1-2 4-6 4-16 8-20 9-15 6-11 3h-3v2l-29 10-16 4-17 4-13 3-8 2h-4v2l-6 1 5 1v1l-14 2h-8l-1-5 3-3h9l-1-1-24 2h-14l1-2 23-1 28-4 31-6 33-7 29-9 23-10 35-17z" fill="#CEB675"/>
<path transform="translate(732,1330)" d="m0 0 4 2 12 10 10 7 14 10 20 13 25 15 15 8 29 12 37 13 29 9 42 8 27 3h73v1l-9 1h-67l-17-1-21-4-27-5-21-6-22-6-31-12-23-10-25-12-31-20-9-6-10-6-6-5-6-4-4-3-3-6z" fill="#CEB675"/>
<path transform="translate(1197,586)" d="m0 0h2v2h6l14 7 7 3h7l10 4 6 4 3 6 7 5 4 2v3l11 3 8 5 5 5 6 5 5 3 6 6v2l5-1 11 12 13 13-1 2-5-2-9-9-8-7-12-10-13-10-13-9-14-8-15-9-18-10-23-11-6-3z" fill="#F4E19C"/>
<path transform="translate(942,551)" d="m0 0h9v2l-10 3-9 2-27 7-29 10-22 9-5 3h-2v3l-8 1-8 4-6 4-19 9-11 5-5 3-2-1 10-8 13-8 14-8 26-12 26-10 24-6 8-4 18-5z" fill="#CEB675"/>
<path transform="translate(902,961)" d="m0 0h3l8 20 6 18-1 3-29-1 1-7 10-30z" fill="#443F3A"/>
<path transform="translate(652,1223)" d="m0 0h2l6 7 8 12 7 9v2h2l9 11 9 10 11 12 5 6v2h2l7 8 5 6 2 1v2l4 2 9 7 7 7 14 11 13 10 9 7v2l-6-1-14-10-14-11-7-7-8-7-39-39-9-11-12-13-13-18-8-12z" fill="#F4E19C"/>
<path transform="translate(1267,624)" d="m0 0 7 1 8 5 5 5 6 5 5 3 6 6v2l5-1 11 12 13 13-1 2-5-2-9-9-8-7-12-10-13-10-13-9-7-4z" fill="#F1DF99"/>
<path transform="translate(1459,843)" d="m0 0 2 3 1 6h2l6 28 8 41 2 14v7l-2-2-2-7-4-24-5-21-2-11-4-14-2-12z" fill="#FDECA5"/>
<path transform="translate(782,935)" d="m0 0h17l-1 4-3-2h-10l-5 6-4 16-7 19-3 3-4 6-1-2 3-16 11-25 3-6z" fill="#F5E29D"/>
<path transform="translate(1072,1421)" d="m0 0 3 1-4 2h-9l-1 5 2 1h-16l-21-2-20-2-5-2v-1h47z" fill="#FFEEA7"/>
<path transform="translate(1357,673)" d="m0 0 5 5 13 14 3 6 9 10 1 4-2 2-7-6-7-8-2-6-4-2-5-7h2l-6-9z" fill="#CEB675"/>
<path transform="translate(580,1064)" d="m0 0h2l13 51 7 21 12 30 11 24 1 4-3-3-4-9-11-24-11-29-7-24-8-32z" fill="#CEB675"/>
<path transform="translate(1347,934)" d="m0 0h7v4l-11 9-10 10-4 2-3-1 5-5 4-7 10-11z" fill="#F1DF99"/>
<path transform="translate(1148,569)" d="m0 0 16 2 12 5 18 9-2 1-15-4-14-6-15-5z" fill="#F2DF99"/>
<path transform="translate(1307,650)" d="m0 0 4 2 7 8 15 15-1 2-5-2-9-9-8-7-6-8z" fill="#F5E39D"/>
<path transform="translate(887 1e3)" d="m0 0h29l6 2-1 2h-35z" fill="#FFEEA7"/>
<path transform="translate(576,919)" d="m0 0h2l-1 14-2 15-1 17-1 6h-1v-25l3-24z" fill="#FFEEA7"/>
<path transform="translate(885,576)" d="m0 0 3 1-19 8-16 8-19 9-3-1 34-17 12-5z" fill="#CEB675"/>
<path transform="translate(1372,696)" d="m0 0h3l2 3 3 1 8 10-2 4-7-6-7-8z" fill="#F0DD98"/>
<path transform="translate(654,1242)" d="m0 0 3 3 10 14 2 4h-3l-1 4h2l2 6-5-5-5-9 4-1-8-8z" fill="#CFB776"/>
<path transform="translate(907,931)" d="m0 0 4 1 5 7-1 4-3-3-5-2-1-1v-5z" fill="#F5E29D"/>
<path transform="translate(572 1e3)" d="m0 0 2 2 1 29-2-3-1-4-1-14z" fill="#FFEEA7"/>
<path transform="translate(1107,935)" d="m0 0h9l-1 4-3 3-4-1-2-5z" fill="#F9E7A1"/>
<path transform="translate(735,1038)" d="m0 0 5 1 1 2v7h-3l-3-7z" fill="#F3E09B"/>
<path transform="translate(1276,605)" d="m0 0 5 2 10 7-2 2v-2l-5-1-7-5z" fill="#CEB675"/>
<path transform="translate(891,976)" d="m0 0h2l-1 5-5 14h-1v-6z" fill="#FFEEA7"/>
</svg>
