<?xml version="1.0" encoding="UTF-8"?>
<svg version="1.1" viewBox="0 0 2048 2048" width="700" height="700" xmlns="http://www.w3.org/2000/svg">
<path transform="translate(0)" d="m0 0h2048v2048h-2048z" fill="#FEFEFE"/>
<path transform="translate(1e3 511)" d="m0 0h25l26 1 34 4 34 6 32 8 29 10 31 13 24 11 22 12 17 11 18 12 19 14 13 11 11 9 15 14 16 16 7 8 10 11 9 11 12 15 10 14 10 15 13 23 12 23 11 23 10 26 9 27 9 36 4 22 5 40 1 26v24l-1 29-4 32-5 28-6 26-8 26-10 29-11 26-14 28-14 24-10 15-14 19-13 16-11 12-9 10-15 16-8 7-12 11-8 7-16 13-19 14-20 13-15 9-22 12-27 13-34 13-30 10-28 7-41 7-28 3-18 1h-20l-32-2-32-4-28-5-33-8-33-11-31-13-26-12-22-12-19-12-20-14-13-10-16-13-10-9-8-7-13-12-19-19-9-11-12-14-13-18-15-23-15-26-14-27-11-26-10-28-7-23-8-34-6-39-2-21v-60l2-25 5-35 6-29 7-27 9-27 11-27 12-26 11-20 13-22 14-21 13-17 11-13 11-12 7-8 19-19 11-9 9-8 11-9 20-15 24-16 20-12 23-12 19-9 27-11 35-12 32-8 35-6 27-3z" fill="#FEFEFE"/>
<path transform="translate(1e3 511)" d="m0 0h25l26 1 34 4 34 6 32 8 29 10 31 13 24 11 22 12 17 11 18 12 19 14 13 11 11 9 15 14 16 16 7 8 10 11 9 11 12 15 10 14 10 15 13 23 12 23 11 23 10 26 9 27 9 36 4 22 5 40 1 26v24l-1 29-4 32-5 28-6 26-8 26-10 29-11 26-14 28-14 24-10 15-14 19-13 16-11 12-9 10-15 16-8 7-12 11-8 7-16 13-19 14-20 13-15 9-22 12-27 13-34 13-30 10-28 7-41 7-28 3-18 1h-20l-32-2-32-4-28-5-33-8-33-11-31-13-26-12-22-12-19-12-20-14-13-10-16-13-10-9-8-7-13-12-19-19-9-11-12-14-13-18-15-23-15-26-14-27-11-26-10-28-7-23-8-34-6-39-2-21v-60l2-25 5-35 6-29 7-27 9-27 11-27 12-26 11-20 13-22 14-21 13-17 11-13 11-12 7-8 19-19 11-9 9-8 11-9 20-15 24-16 20-12 23-12 19-9 27-11 35-12 32-8 35-6 27-3zm-19 12-29 3-39 6-26 6-43 14-21 9-25 12-20 11-22 13-18 13-14 11-13 11-8 7-13 12-31 31-9 11-13 16-14 20-13 21-12 21-13 25-12 28-12 34-8 29-6 28-5 35-2 23v45l3 34 6 37 7 30 9 29 9 25 12 28 11 22 16 27 8 12 13 18 10 13 11 13 12 13 14 15 17 16 7 7 11 9 15 12 18 13 18 11 25 14 27 14 25 10 28 10 22 6 32 7 25 4 30 3h59l25-2 28-4 36-7 25-7 31-11 26-11 29-14 24-14 22-14 16-12 11-9 20-18 8-7 20-20 7-8 10-11 9-11 13-18 16-24 11-19 12-22 11-24 11-29 8-25 7-30 6-35 4-37 1-17v-29l-3-38-4-30-6-29-9-32-10-29-11-26-17-34-16-27-9-13-14-19-11-13-7-8-9-9-7-8-15-15-8-7-13-12-14-11-18-14-17-11-21-12-22-12-29-14-20-7-36-12-34-8-24-4-25-3-13-1z" fill="#141414"/>
<path transform="translate(995,502)" d="m0 0h48l28 2 38 6 24 5 35 10 29 10 26 11 19 9 23 13 19 12 16 11 16 12 14 11 11 10 8 7 12 11 21 21 7 8 14 17 10 13 12 16 10 15 13 23 11 21 11 24 11 28 10 30 7 28 6 34 3 29 1 13v69l-2 26-4 29-5 26-9 33-9 25-11 26-13 27-13 23-9 16-10 15-13 18-13 17-9 10-7 8-11 12-14 13-8 7-11 10-10 8-14 11-16 12-27 18-21 12-16 8-22 10-35 13-32 10-24 6-36 6-35 4-16 1h-32l-29-2-38-5-25-5-37-10-41-14-21-9-25-12-20-12-19-12-17-12-12-9-13-10-14-12-11-9-15-15-7-8-10-10-11-14-12-15-14-19-14-22-12-21-13-25-16-38-12-36-7-30-6-33-5-39-2-23v-27l3-37 5-37 7-34 7-25 9-26 12-29 13-27 13-23 11-18 11-16 12-16 10-13 11-13 16-17 21-21 8-7 14-12 20-15 18-13 22-14 15-9 15-8 33-15 41-14 26-7 36-8 26-4zm8 9-26 1-34 4-33 6-30 8-35 12-28 12-25 12-17 9-24 15-20 14-17 13-13 11-11 9-15 14-16 16-7 8-9 10-11 14-12 16-14 22-15 26-8 16-11 23-11 28-8 24-8 31-6 30-5 39-1 16v60l3 28 5 32 8 34 8 26 10 28 13 29 13 25 16 27 15 22 12 16 11 13 12 14 23 23 8 7 12 11 14 11 15 12 20 14 19 12 21 12 25 12 36 15 33 11 33 8 35 6 25 3 32 2h20l30-2 35-5 26-5 24-6 36-12 30-12 29-14 22-12 22-14 20-14 14-11 13-11 12-11 8-7 13-12 9-10 15-16 9-11 14-18 13-19 8-13 12-21 13-26 11-27 14-41 8-32 5-26 4-29 1-10 1-29v-24l-1-26-5-40-5-26-8-32-11-33-10-24-12-25-12-23-15-25-13-18-10-13-12-14-7-8-18-20-18-18-11-9-10-9-17-13-18-13-22-14-15-9-15-8-24-11-37-15-25-8-28-7-34-6-34-4-26-1z" fill="#FEFEFE"/>
<path transform="translate(976,497)" d="m0 0h78l30 3 36 6 42 11 32 10 35 15 26 13 27 16 22 15 16 12 13 10 15 13 7 7 8 7 22 22 7 8 11 12 10 13 13 18 14 21 17 28 11 22 12 28 14 38 8 27 7 34 5 36 2 24 1 19v25l-2 35-4 30-5 28-7 29-9 29-10 27-13 30-11 22-16 27-10 15-13 17-13 16-18 20-12 13-12 12-8 7-12 11-14 11-13 10-20 14-28 17-24 13-15 8-28 12-34 12-25 7-41 9-37 5-23 2h-40l-26-2-32-4-39-7-30-8-37-12-24-10-35-18-27-16-16-10-16-12-17-14-11-9-14-12-15-14-15-15-9-11-13-16-12-16-13-18-12-19-10-18-13-25-13-31-11-29-8-28-8-38-5-31-2-20-1-18v-35l2-34 4-30 8-38 8-31 11-31 11-26 16-33 11-20 16-24 10-14 11-14 10-13 13-15 11-12 18-18 11-9 10-9 34-26 20-13 22-13 23-12 25-12 38-14 27-8 28-7 28-5 23-3zm19 5-37 3-31 5-36 8-30 9-32 11-28 13-17 8-23 14-24 16-19 14-14 11-15 13-13 12-22 22-7 8-9 10-10 13-14 19-16 24-15 26-13 25-12 28-10 27-8 26-6 26-6 36-4 38-1 16v27l4 40 6 40 8 37 7 24 9 25 12 28 11 23 13 23 13 21 10 14 16 21 13 16 9 10 9 9 7 8 11 11 11 9 13 11 13 10 19 14 17 11 21 13 18 10 23 11 29 11 37 12 40 10 33 5 29 3 17 1h32l36-3 40-6 24-5 34-10 34-12 28-12 16-8 17-9 19-12 20-14 13-10 14-11 13-11 12-11 20-18 14-15 18-22 13-18 9-13 10-16 10-18 13-24 13-28 10-26 8-24 7-28 5-27 4-33 1-16v-69l-3-34-5-32-6-27-10-33-11-29-11-24-11-23-14-24-9-15-13-17-10-13-13-16-9-10-7-8-23-23-8-7-11-10-14-11-13-10-17-12-17-11-15-9-22-12-29-13-30-11-29-9-28-7-35-6-26-3-16-1z" fill="#141414"/>
<path transform="translate(643,937)" d="m0 0h24l16 35 13 31 12 27 2-2 10-27 8-19 16-41 1-3h27l-2 4-3 1v28l2 63 1 13 5 9v3l-10-1h-23l5-6v-96h-2l-1 6-12 32-14 34-9 21-5 10h-5l-8-16-18-39-11-25-6-13-2 86 7 1v4h-20l-2-1 1-3 4-1 1-6 3-84v-21l-4-2z" fill="#141414"/>
<path transform="translate(1365,936)" d="m0 0 10 1 2 1-1 3-9 6-17 16-15 15-1 5 14 20 13 18 14 19 7 7 13 9v2h-17l-12-3-9-6-10-9-10-13-7-11-8-11-5-7v52l4 5v2l-22 1-14 1v-2l7-4v-110l-6-4v-2h36l-2 5-3 2v44l6-5 8-10 23-23 7-10z" fill="#141414"/>
<path transform="translate(888,933)" d="m0 0h3l10 23 12 29 19 45 8 16 6 9v2h-33v-3l1-7-12-30h-38l-4 10-6 19v5l4 4v2h-21v-3l5-4 6-12 11-32 7-19 11-31 8-19z" fill="#141414"/>
<path transform="translate(1008,937)" d="m0 0h36l-1 7 11 23 13 23 1 4h2l2-5 11-18 10-15 4-7 1-10v-2h15l-1 4-7 10-13 19-12 18-5 11-1 4v47l5 7v1l-23-1-8-1v-3l3-2v-40l-3-10-10-18-10-17-10-16-7-8v-2h-2z" fill="#141414"/>
<path transform="translate(1199,937)" d="m0 0h17l-1 4-4 6-1 27v75l6 7v2h-35l2-4 4-2v-107l-3-5v-2z" fill="#141414"/>
<path transform="translate(881,964)" d="m0 0 3 3 11 27 5 13v3l-19 1h-16l12-37z" fill="#FEFEFE"/>
</svg>
